<?xml version="1.0" encoding="UTF-8" standalone="no"?>
<!-- Created with Inkscape (http://www.inkscape.org/) -->

<svg
   width="256"
   height="256"
   viewBox="0 0 67.73333 67.73333"
   version="1.1"
   id="svg1"
   xml:space="preserve"
   xmlns="http://www.w3.org/2000/svg"
   xmlns:svg="http://www.w3.org/2000/svg"><defs
     id="defs1" /><g
     id="layer1"
     transform="translate(-512.11916,-116.6175)"><rect
       width="67.73333"
       height="67.73333"
       fill="#242938"
       rx="15.875"
       id="rect1-6-1-2-6-1-3"
       x="512.11914"
       y="116.6175"
       style="stroke-width:0.264583" /><text
       xml:space="preserve"
       style="font-size:5.8025px;writing-mode:lr-tb;direction:ltr;fill:#e6e6e6;fill-opacity:1;stroke:none;stroke-width:0.098;stroke-dasharray:none;stroke-opacity:1"
       x="528.67987"
       y="173.38065"
       id="text8-1"><tspan
         id="tspan8-2"
         style="font-style:normal;font-variant:normal;font-weight:normal;font-stretch:normal;font-family:'JetBrainsMono Nerd Font Mono';-inkscape-font-specification:'JetBrainsMono Nerd Font Mono';stroke:#e6e6e6;stroke-width:0.098;stroke-dasharray:none;stroke-opacity:1"
         x="528.67987"
         y="173.38065">Algorithms</tspan></text><g
       style="fill:#e6e6e6;fill-opacity:1"
       id="g9"
       transform="matrix(2.0928691,0,0,2.0928691,520.87135,124.50161)"><path
         d="m 16.4425,7.32787 c 0.2771,-0.30788 0.7513,-0.33284 1.0592,-0.05574 l 1.7375,1.56374 c 0.7364,0.66266 1.3472,1.21233 1.7666,1.71093 0.441,0.5242 0.7545,1.0875 0.7545,1.7828 0,0.6953 -0.3135,1.2586 -0.7545,1.7828 -0.4194,0.4986 -1.0302,1.0483 -1.7666,1.7109 l -1.7375,1.5638 c -0.3079,0.2771 -0.7821,0.2521 -1.0592,-0.0558 -0.2771,-0.3079 -0.2521,-0.7821 0.0558,-1.0592 l 1.6964,-1.5268 c 0.7879,-0.7091 1.3191,-1.1895 1.6632,-1.5985 0.3303,-0.3926 0.4024,-0.6218 0.4024,-0.8172 0,-0.1954 -0.0721,-0.4246 -0.4024,-0.8172 -0.3441,-0.409 -0.8753,-0.8894 -1.6632,-1.59851 L 16.4983,8.38707 C 16.1904,8.10997 16.1654,7.63576 16.4425,7.32787 Z"
         fill="#1c274c"
         id="path1-3"
         style="fill:#e6e6e6;fill-opacity:1" /><path
         d="M 7.50178,8.38707 C 7.80966,8.10997 7.83462,7.63576 7.55752,7.32787 7.28043,7.01999 6.80621,6.99503 6.49833,7.27213 L 4.76084,8.83587 C 4.0245,9.49853 3.41369,10.0482 2.99428,10.5468 2.55325,11.071 2.23975,11.6343 2.23975,12.3296 c 0,0.6953 0.3135,1.2586 0.75453,1.7828 0.41941,0.4986 1.03021,1.0483 1.76654,1.7109 l 1.73751,1.5638 c 0.30788,0.2771 0.7821,0.2521 1.05919,-0.0558 0.2771,-0.3079 0.25214,-0.7821 -0.05574,-1.0592 L 5.80531,14.7453 C 5.01743,14.0362 4.48623,13.5558 4.14213,13.1468 3.81188,12.7542 3.73975,12.525 3.73975,12.3296 c 0,-0.1954 0.07213,-0.4246 0.40238,-0.8172 0.3441,-0.409 0.8753,-0.8894 1.66318,-1.59851 z"
         fill="#1c274c"
         id="path2-74"
         style="fill:#e6e6e6;fill-opacity:1" /><path
         opacity="0.5"
         d="m 14.1816,4.2755 c 0.4001,0.1072 0.6375,0.51846 0.5303,0.91856 L 10.7383,20.0238 C 10.6311,20.4239 10.2198,20.6613 9.81974,20.5541 9.41964,20.4469 9.18221,20.0356 9.28941,19.6355 L 13.263,4.80583 c 0.1072,-0.4001 0.5185,-0.63754 0.9186,-0.53033 z"
         fill="#1c274c"
         id="path3-5"
         style="fill:#e6e6e6;fill-opacity:1;stroke:none;stroke-opacity:1" /></g></g></svg>
