<?xml version="1.0" encoding="UTF-8" standalone="no"?>
<!-- Created with Inkscape (http://www.inkscape.org/) -->

<svg
   width="256"
   height="256"
   viewBox="0 0 67.73333 67.73333"
   version="1.1"
   id="svg1"
   xml:space="preserve"
   xmlns="http://www.w3.org/2000/svg"
   xmlns:svg="http://www.w3.org/2000/svg"><defs
     id="defs1" /><g
     id="layer1"
     transform="translate(-124.13831,-116.6175)"><rect
       width="67.73333"
       height="67.73333"
       fill="#242938"
       rx="15.875"
       id="rect1"
       x="124.13831"
       y="116.61751"
       style="stroke-width:0.264583" /><path
       d="m 158.00498,129.31749 c -1.85209,4.63021 -3.04271,7.54063 -5.15938,12.03854 1.32292,1.45521 2.91042,3.04271 5.42396,4.7625 -2.77812,-1.05833 -4.63021,-2.24896 -5.95312,-3.43958 -2.77813,5.68854 -7.01146,13.62604 -15.47813,29.10417 6.61458,-3.96875 11.90625,-6.35 16.80104,-7.27605 -0.26458,-0.92604 -0.39687,-1.85208 -0.39687,-2.91041 v -0.13229 c 0.13229,-4.36563 2.38125,-7.67292 5.02708,-7.40834 2.64583,0.13229 4.7625,3.83646 4.63021,8.20209 l -0.26458,2.24895 c 4.7625,0.92605 9.92187,3.43959 16.53645,7.14375 l -3.57187,-6.61458 c -1.71979,-1.32292 -3.57188,-3.04271 -7.27604,-5.02708 2.51354,0.66146 4.36562,1.45521 5.82083,2.24896 -11.37708,-21.03438 -12.30312,-23.8125 -16.13958,-33.07292 z"
       fill="#1793d1"
       id="path1-2"
       style="fill:#ffffff;stroke-width:0.132292" /></g></svg>
