<?xml version="1.0" encoding="UTF-8" standalone="no"?>
<!-- Created with Inkscape (http://www.inkscape.org/) -->

<svg
   width="48"
   height="48"
   viewBox="0 0 12.699999 12.699999"
   version="1.1"
   id="svg1"
   xml:space="preserve"
   sodipodi:docname="fedora.svg"
   inkscape:version="1.4.3 (0d15f75042, 2025-12-25)"
   xmlns:inkscape="http://www.inkscape.org/namespaces/inkscape"
   xmlns:sodipodi="http://sodipodi.sourceforge.net/DTD/sodipodi-0.dtd"
   xmlns="http://www.w3.org/2000/svg"
   xmlns:svg="http://www.w3.org/2000/svg"><sodipodi:namedview
     id="namedview1"
     pagecolor="#505050"
     bordercolor="#ffffff"
     borderopacity="1"
     inkscape:showpageshadow="0"
     inkscape:pageopacity="0"
     inkscape:pagecheckerboard="1"
     inkscape:deskcolor="#505050"
     inkscape:zoom="5.0664933"
     inkscape:cx="19.24408"
     inkscape:cy="18.158516"
     inkscape:window-width="1920"
     inkscape:window-height="1042"
     inkscape:window-x="0"
     inkscape:window-y="0"
     inkscape:window-maximized="1"
     inkscape:current-layer="layer1"><inkscape:page
       x="0"
       y="0"
       width="12.699999"
       height="12.699999"
       id="page2"
       margin="0"
       bleed="0" /></sodipodi:namedview><defs
     id="defs1" /><g
     id="layer1"
     transform="translate(-539.56354,-144.06189)"><g
       id="g3"><rect
         width="12.7"
         height="12.7"
         fill="#242938"
         rx="2.9765623"
         id="rect1-6-1-2-6-1-3"
         x="539.56354"
         y="144.06189"
         style="stroke-width:0.0496093" /><g
         id="g2"><path
           fill="#4f6db1"
           fill-rule="evenodd"
           d="m 545.91349,147.13448 c -1.8093,0 -3.27613,1.46618 -3.27741,3.27524 v 2.53629 c 10e-4,0.41075 0.33412,0.74329 0.74513,0.74329 h 2.53361 c 1.80954,-5.1e-4 3.27618,-1.46761 3.27618,-3.27728 0,-1.8101 -1.46739,-3.27754 -3.27751,-3.27754 z m 1.25513,1.52308 c -0.10353,0 -0.14115,-0.0199 -0.29285,-0.0199 -0.44788,0 -0.81115,0.36275 -0.8119,0.81063 v 0.70551 c 0,0.0632 0.0513,0.11445 0.11468,0.11445 l 0.53339,1.2e-4 c 0.19871,0 0.35927,0.15851 0.35927,0.35775 0,0.20054 -0.16222,0.35842 -0.36306,0.35842 h -0.6443 v 0.81526 c 0,0.84946 -0.68868,1.53824 -1.53817,1.53824 -0.12888,0 -0.22052,-0.0146 -0.33983,-0.0457 -0.17396,-0.0456 -0.31611,-0.1882 -0.31616,-0.3541 0,-0.20045 0.14555,-0.34636 0.36313,-0.34636 0.10357,0 0.14112,0.0199 0.29287,0.0199 0.44785,0 0.81112,-0.36278 0.81193,-0.8106 v -0.70555 c 0,-0.0633 -0.0514,-0.11448 -0.11469,-0.11448 l -0.53339,-6e-5 c -0.19874,0 -0.3593,-0.15852 -0.3593,-0.35777 0,-0.20057 0.16222,-0.3584 0.36308,-0.3584 h 0.6442 v -0.81531 c 0,-0.84946 0.68879,-1.53822 1.53825,-1.53822 0.12888,0 0.22052,0.0145 0.33979,0.0458 0.174,0.0455 0.31612,0.18814 0.31622,0.35404 0,0.20053 -0.14556,0.3464 -0.36316,0.3464 z"
           id="path1"
           style="stroke-width:0.273122" /><path
           style="fill:#ffffff;stroke:#e6e6e6;stroke-width:0.0365533"
           d="m 17.498875,34.828754 c -1.164339,-0.358291 -1.531177,-1.488789 -0.715494,-2.204968 0.342965,-0.301126 0.354977,-0.303601 1.473555,-0.303601 1.393222,0 2.004791,-0.194386 2.65396,-0.843554 0.80947,-0.80947 0.894322,-1.105231 0.931688,-3.247488 0.02963,-1.698762 0.01657,-1.882315 -0.142222,-1.998423 -0.120825,-0.08835 -0.551683,-0.127853 -1.394482,-0.127853 -1.325204,0 -1.619101,-0.08181 -1.990619,-0.554119 -0.253982,-0.322886 -0.276108,-1.023927 -0.04468,-1.415702 0.309602,-0.524115 0.568894,-0.596056 2.148305,-0.596056 h 1.440416 v -1.807596 c 0,-2.200073 0.08707,-2.725685 0.640576,-3.866941 0.864119,-1.781699 2.462754,-2.938327 4.441634,-3.213564 1.28957,-0.179362 2.453911,0.137654 2.88551,0.785641 0.392803,0.58974 0.251672,1.247835 -0.355329,1.656893 -0.298297,0.201022 -0.432168,0.219765 -1.430952,0.200337 -1.06935,-0.0208 -1.121609,-0.01172 -1.770835,0.307576 -0.480736,0.236434 -0.778308,0.467336 -1.057563,0.82062 -0.58236,0.736741 -0.688477,1.223119 -0.688477,3.155598 0,2.064421 -0.08714,1.961436 1.659749,1.961436 1.352588,0 1.628588,0.08755 1.940467,0.615516 0.21376,0.361866 0.215007,0.997471 0.0026,1.321655 -0.351849,0.536988 -0.668381,0.627936 -2.186847,0.628337 l -1.396634,3.69e-4 -0.04289,2.146455 c -0.04631,2.317703 -0.08694,2.531606 -0.717476,3.777019 -0.337265,0.666155 -1.486897,1.827558 -2.219592,2.242316 -1.154429,0.65349 -2.95466,0.901575 -4.064363,0.560097 z"
           id="path2"
           transform="matrix(0.26458331,0,0,0.26458331,539.56354,144.06189)" /></g></g></g></svg>
