<?xml version="1.0" encoding="UTF-8" standalone="no"?>
<!-- Created with Inkscape (http://www.inkscape.org/) -->

<svg
   width="256"
   height="256"
   viewBox="0 0 67.73333 67.73333"
   version="1.1"
   id="svg1"
   xml:space="preserve"
   xmlns="http://www.w3.org/2000/svg"
   xmlns:svg="http://www.w3.org/2000/svg"><defs
     id="defs1" /><g
     id="layer1"
     transform="translate(-201.87164,-116.6175)"><rect
       width="67.73333"
       height="67.73333"
       fill="#242938"
       rx="15.875"
       id="rect1-6"
       x="201.87164"
       y="116.6175"
       style="stroke-width:0.264583" /><g
       id="g3"
       transform="matrix(0.26458333,0,0,0.26458333,209.712,122.99722)"><path
         d="m 0,0 c 13.15,5.12 23.86,14.41 34,24 0.82,0.76 1.64,1.52 2.49,2.3 12.71,12.11 25.29,28.8 25.82,46.89 -0.2,11.64 -3.06,22.54 -11.12,31.12 -4.35,4.11 -8.04,6.56 -14.19,6.81 -0.66,-0.37 -1.32,-0.74 -2,-1.12 -0.1,-5.11 1.73,-8.72 4.08,-13.17 3.07,-6.09 2.69,-13.9 0.86,-20.33 C 36.4,67.11 29.5,60.96 21,56 16.97,54.22 13.38,53.14 9,54 1.35,63.4 1.23,77.49 2,89 c 0.61,4.27 2.04,8.13 3.62,12.12 1.31,3.41 2.1,6.21 1.38,9.88 -2.84,1 -4.53,1.14 -7.43,0.29 -7.41,-3.71 -12.76,-7.67 -15.85,-15.56 -1.01,-3.22 -1.91,-6.45 -2.72,-9.73 -0.18,-0.65 -0.35,-1.29 -0.54,-1.96 -0.77,-3.43 -0.6,-6.91 -0.58,-10.42 0,-0.88 0,-1.76 0.01,-2.66 0.06,-8.96 0.23,-17.92 0.43,-26.88 0.04,-1.66 0.07,-3.32 0.1,-4.98 0.59,-30.38 0.59,-30.38 7.7,-38.54 C -7.6,-1.76 -4.61,-1.3 0,0 Z"
         fill="#d6714f"
         transform="translate(79,26)"
         id="path1" /><path
         d="m 0,0 c 5.83,4.27 11.26,8.91 16.55,13.81 1.89,1.72 3.81,3.32 5.8,4.92 11.8,10.07 25.25,28.53 26.64,44.47 0.58,15.36 -0.2,28.24 -10.2,40.65 -5.58,5.32 -11.74,10.03 -19.63,10.44 -3.1,-0.12 -4.2,-0.33 -6.87,-2.06 -1.86,-2.94 -2.36,-4.9 -2.5,-8.38 0.7,-2.86 1.66,-5.35 3.03,-7.96 3.6,-7.12 4.54,-14.09 2.09,-21.82 -3.93,-8.65 -9.73,-12.9 -18.2,-16.75 -0.64,-0.15 -1.27,-0.31 -1.92,-0.47 -5.6,5.6 -5.48,16.4 -5.51,23.85 0.16,5.06 1.32,9.36 3.07,14.09 2.24,6.05 3.28,9.81 1.44,16.06 -2.61,3.14 -4.19,3.86 -8.19,4.56 -8.45,-1.24 -16.3,-6.06 -21.81,-12.56 -7.38,-11.76 -8.32,-22.38 -8.19,-36 0.01,-1.45 0.02,-2.89 0.03,-4.34 0.06,-9.78 0.23,-19.57 0.48,-29.35 0.04,-1.39 0.07,-2.79 0.1,-4.18 0.62,-26.73 0.62,-26.73 8.03,-34.69 C -24.66,-15.58 -10.38,-6.94 0,0 Z m -31,-1.93 c -5.55,8.12 -5.31,19.75 -5.53,29.23 -0.01,0.39 -0.01,0.39 -0.06,2.35 -0.07,2.48 -0.13,4.97 -0.18,7.45 -0.02,0.85 -0.04,1.7 -0.06,2.57 -0.1,4.22 -0.19,8.45 -0.28,12.67 -0.08,3.72 -0.19,7.43 -0.3,11.15 -0.31,12.31 -0.08,25.87 8.43,35.71 5.3,4.95 10.39,8.5 17.77,8.65 1,-1 1,-1 1.31,-3.44 -0.36,-4.14 -1.65,-7.22 -3.34,-11 -4.77,-12.57 -2.57,-28.81 2.65,-40.93 2.38,-2.63 2.38,-2.63 4.36,-2.96 9.28,0.59 16.77,5.75 23.02,12.33 5.57,7.17 8,14.94 7,24 -1.05,4.37 -2.62,8.27 -4.69,12.25 -1.38,2.9 -2.03,4.59 -1.31,7.75 2,1.06 2,1.06 5,1 7.52,-2.41 13.48,-7.82 17.25,-14.69 C 45.29,80.39 46.8,68.04 42.73,55.73 33.04,31.22 9.45,7.92 -14.49,-3.11 -20.51,-5.4 -25.92,-7 -31,-1.93 Z"
         fill="#403d3d"
         transform="translate(96.210937,30.148437)"
         id="path2"
         style="fill:#2d2d2d;fill-opacity:1" /><path
         d="M 0,0 C 3.77,3.77 5.16,6.55 5.31,11.81 5.28,15.47 5.06,16.9 3.25,20.19 1,22 1,22 -1.25,21.94 -1.83,21.63 -2.41,21.32 -3,21 c 0,-0.66 0,-1.32 0,-2 -6.43,-1.44 -13.07,-1.22 -19.62,-1.25 -0.56,-0.01 -0.56,-0.01 -3.4,-0.06 -0.54,-0.01 -0.54,-0.01 -3.27,-0.02 -0.98,-0.01 -1.95,-0.02 -2.96,-0.03 -3.23,0.42 -5.08,1.55 -7.75,3.36 -2.06,1 -2.06,1 -4,1 -2.82,-2.19 -3.84,-4.05 -4.43,-7.57 C -48.64,9.93 -48.71,6.16 -45.88,2.5 -35.05,-6.91 -12.13,-7.47 0,0 Z"
         fill="#d5665e"
         transform="translate(122,154)"
         id="path3" /><path
         d="m 0,0 c 0.53,0.01 0.53,0.01 3.19,0.04 8.47,0.23 16.35,0.6 23.06,6.33 5.47,5.84 7.24,10.75 7.07,18.7 -0.56,5.34 -3.21,9.07 -7.26,12.43 -11.98,7.42 -29.87,6.47 -43.25,3.94 -5.82,-1.59 -9.97,-4.21 -13.75,-8.94 -2.86,-5.73 -2.59,-11.48 -0.94,-17.56 2.17,-5.86 5.73,-8.93 11.32,-11.56 C -13.57,0.68 -7.47,-0.14 0,0 Z m -23.94,13.5 c -1.99,3.98 -1.51,8.67 -1,13 2.5,4.65 4.54,6.09 9.51,7.63 5.52,1.56 10.72,1.83 16.43,1.75 0.96,-0.02 1.93,-0.03 2.92,-0.04 16.58,-0.36 16.58,-0.36 22.33,-5.9 2.44,-4.64 2.69,-8.3 1.81,-13.44 -2.24,-5.05 -5.16,-7 -10,-9.24 C 12.69,5.22 7.56,5.28 1.88,5.25 0.97,5.23 0.06,5.21 -0.88,5.19 -10.12,5.13 -17.25,6.98 -23.94,13.5 Z"
         fill="#413f3f"
         transform="translate(98.9375,144.5)"
         id="path4"
         style="fill:#2d2d2d;fill-opacity:1" /><path
         d="m 0,0 c 1.12,-0.01 2.24,-0.02 3.39,-0.04 13.7,-0.02 13.7,-0.02 18.8,4.29 0.18,0.64 0.37,1.28 0.56,1.94 -5.02,1.3 -5.02,1.3 -8,1 -0.44,-0.5 -0.88,-1 -1.34,-1.51 C 11.17,3.67 9.94,3.89 6.97,4.04 6.51,4.07 6.51,4.07 4.17,4.18 3.21,4.25 2.24,4.31 1.25,4.38 0.77,4.4 0.77,4.4 -1.67,4.51 c -7.17,0.4 -7.17,0.4 -10.58,2.68 -3.06,0.25 -3.06,0.25 -6,0 -0.66,-0.66 -1.32,-1.32 -2,-2 C -14.01,-0.7 -8.11,0 0,0 Z"
         fill="#ac4945"
         transform="translate(99.25,170.8125)"
         id="path5" /><path
         d="m 0,0 c 0,0.66 0,1.32 0,2 0.66,0.33 1.32,0.66 2,1 -5.4,1.22 -10.61,1.18 -16.12,1.19 -0.51,0 -0.51,0 -3.04,0.03 -0.48,0.01 -0.48,0.01 -2.91,0.01 -0.87,0 -1.75,0.01 -2.65,0.01 C -25,4 -25,4 -28,2 c 4.22,-3.95 9.68,-3.62 15.12,-3.81 0.91,-0.05 1.82,-0.1 2.75,-0.16 C -3.39,-2.26 -3.39,-2.26 0,0 Z"
         fill="#893b39"
         transform="translate(114,176)"
         id="path6" /></g></g></svg>
